<?xml version="1.0" encoding="UTF-8"?>
<svg xmlns="http://www.w3.org/2000/svg" xmlns:xlink="http://www.w3.org/1999/xlink" width="35px" height="35px" viewBox="0 0 60 60" version="1.1">
<g id="surface1">
<path style=" stroke:none;fill-rule:evenodd;fill:rgb(0%,0%,0%);fill-opacity:1;" d="M 37.5 37.5 C 37.5 33.359375 40.859375 30 45 30 C 49.140625 30 52.5 33.359375 52.5 37.5 C 52.5 41.640625 49.140625 45 45 45 C 45 49.140625 41.640625 52.5 37.5 52.5 C 33.359375 52.5 30 49.140625 30 45 C 30 40.859375 33.359375 37.5 37.5 37.5 Z M 7.5 7.5 C 7.5 3.359375 10.859375 0 15 0 C 19.140625 0 22.5 3.359375 22.5 7.5 C 22.5 11.640625 19.140625 15 15 15 C 15 19.140625 11.640625 22.5 7.5 22.5 C 3.359375 22.5 0 19.140625 0 15 C 0 10.859375 3.359375 7.5 7.5 7.5 Z M 15 13.5 C 18.3125 13.5 21 10.8125 21 7.5 C 21 4.1875 18.3125 1.5 15 1.5 C 11.6875 1.5 9 4.1875 9 7.5 C 9 10.8125 11.6875 13.5 15 13.5 Z M 45 43.5 C 48.3125 43.5 51 40.8125 51 37.5 C 51 34.1875 48.3125 31.5 45 31.5 C 41.6875 31.5 39 34.1875 39 37.5 C 39 40.8125 41.6875 43.5 45 43.5 Z M 45 43.5 "/>
</g>
</svg>
